{
    "asset" : {
        "generator" : "Khronos glTF Blender I/O v1.8.19",
        "version" : "2.0"
    },
    "scene" : 0,
    "scenes" : [
        {
            "extras" : {
                "b_renderer" : 1,
                "b_settings" : 1,
                "b_cubemap" : 1,
                "b_camera_cube" : 1,
                "b_show_env_sky" : 0,
                "b_cubemap_background" : 0,
                "b_export" : 1,
                "export_path" : "C:\\Users\\Roman\\Desktop\\\u041c\u043e\u0438 \u043f\u0440\u043e\u0435\u043a\u0442\u044b\\\u041d\u0422\u041e\\Blend\\\u0421\u0446\u0435\u043d\u0430\\",
                "s_output" : "exporting...",
                "b_player" : 1,
                "b_bake_lightmap" : 1,
                "b_use_lightmapper" : 0,
                "b_cast_shadows" : 1,
                "b_stats" : 1
            },
            "name" : "Scene",
            "nodes" : [
                0
            ]
        }
    ],
    "nodes" : [
        {
            "mesh" : 0,
            "name" : "Mesh_0.004",
            "rotation" : [
                -0.2557535469532013,
                0.010904472321271896,
                0.9665711522102356,
                0.014541509561240673
            ],
            "scale" : [
                -119.03421783447266,
                -119.03421783447266,
                -119.03421783447266
            ]
        }
    ],
    "materials" : [
        {
            "name" : "Material_0.004",
            "normalTexture" : {
                "index" : 0
            },
            "pbrMetallicRoughness" : {
                "baseColorTexture" : {
                    "index" : 1
                },
                "metallicFactor" : 0
            }
        }
    ],
    "meshes" : [
        {
            "name" : "Mesh_0.004",
            "primitives" : [
                {
                    "attributes" : {
                        "POSITION" : 0,
                        "NORMAL" : 1,
                        "TANGENT" : 2,
                        "TEXCOORD_0" : 3
                    },
                    "indices" : 4,
                    "material" : 0
                }
            ]
        }
    ],
    "textures" : [
        {
            "sampler" : 0,
            "source" : 0
        },
        {
            "sampler" : 0,
            "source" : 1
        }
    ],
    "images" : [
        {
            "bufferView" : 5,
            "mimeType" : "image/jpeg",
            "name" : "Image_1"
        },
        {
            "bufferView" : 6,
            "mimeType" : "image/jpeg",
            "name" : "Image_0"
        }
    ],
    "accessors" : [
        {
            "bufferView" : 0,
            "componentType" : 5126,
            "count" : 19175,
            "max" : [
                0.08161341398954391,
                0.056109730154275894,
                0.07102596759796143
            ],
            "min" : [
                -0.0757298618555069,
                -0.05203345790505409,
                -0.08210193365812302
            ],
            "type" : "VEC3"
        },
        {
            "bufferView" : 1,
            "componentType" : 5126,
            "count" : 19175,
            "type" : "VEC3"
        },
        {
            "bufferView" : 2,
            "componentType" : 5126,
            "count" : 19175,
            "type" : "VEC4"
        },
        {
            "bufferView" : 3,
            "componentType" : 5126,
            "count" : 19175,
            "type" : "VEC2"
        },
        {
            "bufferView" : 4,
            "componentType" : 5123,
            "count" : 105498,
            "type" : "SCALAR"
        }
    ],
    "bufferViews" : [
        {
            "buffer" : 0,
            "byteLength" : 230100,
            "byteOffset" : 0
        },
        {
            "buffer" : 0,
            "byteLength" : 230100,
            "byteOffset" : 230100
        },
        {
            "buffer" : 0,
            "byteLength" : 306800,
            "byteOffset" : 460200
        },
        {
            "buffer" : 0,
            "byteLength" : 153400,
            "byteOffset" : 767000
        },
        {
            "buffer" : 0,
            "byteLength" : 210996,
            "byteOffset" : 920400
        },
        {
            "buffer" : 0,
            "byteLength" : 307820,
            "byteOffset" : 1131396
        },
        {
            "buffer" : 0,
            "byteLength" : 1375236,
            "byteOffset" : 1439216
        }
    ],
    "samplers" : [
        {
            "magFilter" : 9729,
            "minFilter" : 9987
        }
    ],
    "buffers" : [
        {
            "byteLength" : 2814452,
            "uri" : "data:application/octet-stream;base64,"
        }
    ]
}
