{
    "asset" : {
        "generator" : "Khronos glTF Blender I/O v1.8.19",
        "version" : "2.0"
    },
    "scene" : 0,
    "scenes" : [
        {
            "extras" : {
                "b_renderer" : 1,
                "b_settings" : 1,
                "b_cubemap" : 1,
                "b_camera_cube" : 1,
                "b_show_env_sky" : 0,
                "b_cubemap_background" : 0,
                "b_export" : 1,
                "export_path" : "C:\\Users\\Roman\\Desktop\\\u041c\u043e\u0438 \u043f\u0440\u043e\u0435\u043a\u0442\u044b\\\u041d\u0422\u041e\\Blend\\\u0421\u0446\u0435\u043d\u0430\\",
                "s_output" : "exporting...",
                "b_player" : 1,
                "b_bake_lightmap" : 1,
                "b_use_lightmapper" : 0,
                "b_cast_shadows" : 1,
                "b_stats" : 1
            },
            "name" : "Scene",
            "nodes" : [
                0
            ]
        }
    ],
    "nodes" : [
        {
            "mesh" : 0,
            "name" : "Mesh_0.003",
            "rotation" : [
                0.017134826630353928,
                0.9962197542190552,
                -0.007896028459072113,
                0.08479525148868561
            ],
            "scale" : [
                300.1683349609375,
                300.1683654785156,
                300.1683349609375
            ]
        }
    ],
    "materials" : [
        {
            "name" : "Material_0.002",
            "normalTexture" : {
                "index" : 0
            },
            "pbrMetallicRoughness" : {
                "baseColorTexture" : {
                    "index" : 1
                },
                "metallicFactor" : 0
            }
        }
    ],
    "meshes" : [
        {
            "name" : "Mesh_0.003",
            "primitives" : [
                {
                    "attributes" : {
                        "POSITION" : 0,
                        "NORMAL" : 1,
                        "TEXCOORD_0" : 2
                    },
                    "indices" : 3,
                    "material" : 0
                }
            ]
        }
    ],
    "textures" : [
        {
            "sampler" : 0,
            "source" : 0
        },
        {
            "sampler" : 0,
            "source" : 1
        }
    ],
    "images" : [
        {
            "bufferView" : 4,
            "mimeType" : "image/jpeg",
            "name" : "Image_1"
        },
        {
            "bufferView" : 5,
            "mimeType" : "image/jpeg",
            "name" : "Image_0"
        }
    ],
    "accessors" : [
        {
            "bufferView" : 0,
            "componentType" : 5126,
            "count" : 15576,
            "max" : [
                0.020369146019220352,
                0.02541300095617771,
                0.024721771478652954
            ],
            "min" : [
                -0.019826358184218407,
                -0.018607890233397484,
                -0.03312050923705101
            ],
            "type" : "VEC3"
        },
        {
            "bufferView" : 1,
            "componentType" : 5126,
            "count" : 15576,
            "type" : "VEC3"
        },
        {
            "bufferView" : 2,
            "componentType" : 5126,
            "count" : 15576,
            "type" : "VEC2"
        },
        {
            "bufferView" : 3,
            "componentType" : 5123,
            "count" : 80697,
            "type" : "SCALAR"
        }
    ],
    "bufferViews" : [
        {
            "buffer" : 0,
            "byteLength" : 186912,
            "byteOffset" : 0
        },
        {
            "buffer" : 0,
            "byteLength" : 186912,
            "byteOffset" : 186912
        },
        {
            "buffer" : 0,
            "byteLength" : 124608,
            "byteOffset" : 373824
        },
        {
            "buffer" : 0,
            "byteLength" : 161394,
            "byteOffset" : 498432
        },
        {
            "buffer" : 0,
            "byteLength" : 307820,
            "byteOffset" : 659828
        },
        {
            "buffer" : 0,
            "byteLength" : 623060,
            "byteOffset" : 967648
        }
    ],
    "samplers" : [
        {
            "magFilter" : 9729,
            "minFilter" : 9987
        }
    ],
    "buffers" : [
        {
            "byteLength" : 1590708,
            "uri" : "data:application/octet-stream;base64,"
        }
    ]
}
