{
    "asset" : {
        "generator" : "Khronos glTF Blender I/O v1.8.19",
        "version" : "2.0"
    },
    "scene" : 0,
    "scenes" : [
        {
            "extras" : {
                "b_renderer" : 1,
                "b_settings" : 1,
                "b_cubemap" : 1,
                "b_camera_cube" : 1,
                "b_show_env_sky" : 0,
                "b_cubemap_background" : 0,
                "b_export" : 1,
                "export_path" : "C:\\Users\\Roman\\Desktop\\\u041c\u043e\u0438 \u043f\u0440\u043e\u0435\u043a\u0442\u044b\\\u041d\u0422\u041e\\Blend\\\u0421\u0446\u0435\u043d\u0430\\",
                "s_output" : "exporting...",
                "b_player" : 1,
                "b_bake_lightmap" : 1,
                "b_use_lightmapper" : 0,
                "b_cast_shadows" : 1,
                "b_stats" : 1
            },
            "name" : "Scene",
            "nodes" : [
                0
            ]
        }
    ],
    "nodes" : [
        {
            "mesh" : 0,
            "name" : "\u041e\u043a\u0440\u0443\u0436\u043d\u043e\u0441\u0442\u044c.001",
            "scale" : [
                28.1025333404541,
                28.1025333404541,
                28.1025333404541
            ]
        }
    ],
    "materials" : [
        {
            "doubleSided" : true,
            "name" : "\u041c\u0430\u0442\u0435\u0440\u0438\u0430\u043b.002",
            "pbrMetallicRoughness" : {
                "baseColorFactor" : [
                    0.1946178376674652,
                    0.3662526309490204,
                    0.5108935236930847,
                    1
                ],
                "metallicFactor" : 0,
                "roughnessFactor" : 0.5
            }
        }
    ],
    "meshes" : [
        {
            "name" : "\u041e\u043a\u0440\u0443\u0436\u043d\u043e\u0441\u0442\u044c.001",
            "primitives" : [
                {
                    "attributes" : {
                        "POSITION" : 0,
                        "NORMAL" : 1,
                        "TANGENT" : 2,
                        "TEXCOORD_0" : 3
                    },
                    "indices" : 4,
                    "material" : 0
                }
            ]
        }
    ],
    "accessors" : [
        {
            "bufferView" : 0,
            "componentType" : 5126,
            "count" : 52,
            "max" : [
                1,
                0,
                1
            ],
            "min" : [
                -1,
                0,
                -1
            ],
            "type" : "VEC3"
        },
        {
            "bufferView" : 1,
            "componentType" : 5126,
            "count" : 52,
            "type" : "VEC3"
        },
        {
            "bufferView" : 2,
            "componentType" : 5126,
            "count" : 52,
            "type" : "VEC4"
        },
        {
            "bufferView" : 3,
            "componentType" : 5126,
            "count" : 52,
            "type" : "VEC2"
        },
        {
            "bufferView" : 4,
            "componentType" : 5123,
            "count" : 96,
            "type" : "SCALAR"
        }
    ],
    "bufferViews" : [
        {
            "buffer" : 0,
            "byteLength" : 624,
            "byteOffset" : 0
        },
        {
            "buffer" : 0,
            "byteLength" : 624,
            "byteOffset" : 624
        },
        {
            "buffer" : 0,
            "byteLength" : 832,
            "byteOffset" : 1248
        },
        {
            "buffer" : 0,
            "byteLength" : 416,
            "byteOffset" : 2080
        },
        {
            "buffer" : 0,
            "byteLength" : 192,
            "byteOffset" : 2496
        }
    ],
    "buffers" : [
        {
            "byteLength" : 2688,
            "uri" : "data:application/octet-stream;base64,"
        }
    ]
}
