{
    "asset" : {
        "generator" : "Khronos glTF Blender I/O v1.8.19",
        "version" : "2.0"
    },
    "scene" : 0,
    "scenes" : [
        {
            "extras" : {
                "b_renderer" : 1,
                "b_settings" : 1,
                "b_cubemap" : 1,
                "b_camera_cube" : 1,
                "b_show_env_sky" : 0,
                "b_cubemap_background" : 0,
                "b_export" : 1,
                "export_path" : "C:\\Users\\Roman\\Desktop\\\u041c\u043e\u0438 \u043f\u0440\u043e\u0435\u043a\u0442\u044b\\\u041d\u0422\u041e\\Blend\\\u0421\u0446\u0435\u043d\u0430\\",
                "s_output" : "exporting...",
                "b_player" : 1,
                "b_bake_lightmap" : 1,
                "b_use_lightmapper" : 0,
                "b_cast_shadows" : 1,
                "b_stats" : 1
            },
            "name" : "Scene",
            "nodes" : [
                0
            ]
        }
    ],
    "nodes" : [
        {
            "mesh" : 0,
            "name" : "\u041e\u043a\u0440\u0443\u0436\u043d\u043e\u0441\u0442\u044c"
        }
    ],
    "materials" : [
        {
            "doubleSided" : true,
            "name" : "\u041c\u0430\u0442\u0435\u0440\u0438\u0430\u043b",
            "pbrMetallicRoughness" : {
                "baseColorTexture" : {
                    "index" : 0
                },
                "metallicFactor" : 0,
                "roughnessFactor" : 0.5
            }
        }
    ],
    "meshes" : [
        {
            "name" : "\u041e\u043a\u0440\u0443\u0436\u043d\u043e\u0441\u0442\u044c",
            "primitives" : [
                {
                    "attributes" : {
                        "POSITION" : 0,
                        "NORMAL" : 1,
                        "TEXCOORD_0" : 2
                    },
                    "indices" : 3,
                    "material" : 0
                }
            ]
        }
    ],
    "textures" : [
        {
            "sampler" : 0,
            "source" : 0
        }
    ],
    "images" : [
        {
            "bufferView" : 4,
            "mimeType" : "image/png",
            "name" : "\u0411\u0410\u0419\u041a\u0410.png"
        }
    ],
    "accessors" : [
        {
            "bufferView" : 0,
            "componentType" : 5126,
            "count" : 3637,
            "max" : [
                22.446292877197266,
                12.18317985534668,
                22.337854385375977
            ],
            "min" : [
                -23.635705947875977,
                -11.033135414123535,
                -23.744144439697266
            ],
            "type" : "VEC3"
        },
        {
            "bufferView" : 1,
            "componentType" : 5126,
            "count" : 3637,
            "type" : "VEC3"
        },
        {
            "bufferView" : 2,
            "componentType" : 5126,
            "count" : 3637,
            "type" : "VEC2"
        },
        {
            "bufferView" : 3,
            "componentType" : 5123,
            "count" : 8070,
            "type" : "SCALAR"
        }
    ],
    "bufferViews" : [
        {
            "buffer" : 0,
            "byteLength" : 43644,
            "byteOffset" : 0
        },
        {
            "buffer" : 0,
            "byteLength" : 43644,
            "byteOffset" : 43644
        },
        {
            "buffer" : 0,
            "byteLength" : 29096,
            "byteOffset" : 87288
        },
        {
            "buffer" : 0,
            "byteLength" : 16140,
            "byteOffset" : 116384
        },
        {
            "buffer" : 0,
            "byteLength" : 793712,
            "byteOffset" : 132524
        }
    ],
    "samplers" : [
        {
            "magFilter" : 9729,
            "minFilter" : 9987
        }
    ],
    "buffers" : [
        {
            "byteLength" : 926236,
            "uri" : "data:application/octet-stream;base64,"
        }
    ]
}
